<?xml version="1.0" encoding="UTF-8" standalone="no"?>
<!-- Created with Inkscape (http://www.inkscape.org/) -->

<svg
   version="1.1"
   id="svg1"
   width="248.77415"
   height="252.81296"
   viewBox="0 0 248.77415 252.81296"
   xmlns="http://www.w3.org/2000/svg"
   xmlns:svg="http://www.w3.org/2000/svg">
  <defs
     id="defs1" />
  <g
     id="g1"
     transform="translate(-24.963547,-323.80313)">
    <g
       id="g10"
       transform="translate(-56.148724,-31.696861)">
      <path
         style="fill:#4fb929"
         d="M 110.90073,607.84722 C 99.497843,606.71928 89.822664,599.93616 84.432084,589.29048 L 81.5,583.5 v -102 -102 l 2.16089,-4.67567 c 3.224755,-6.97763 9.44041,-13.13607 16.59163,-16.4389 L 106.5,355.5 h 99.02119 99.02118 l 6.68684,3.292 c 7.27244,3.58029 12.35171,8.69648 16.01602,16.13243 L 329.5,379.5 V 482 584.5 l -2.6456,5 c -4.31967,8.16389 -10.70994,13.88907 -18.8544,16.89208 -4.0551,1.49519 -13.69459,1.68141 -97.5,1.88357 -51.15,0.12339 -95.96967,-0.0694 -99.59927,-0.42843 z M 166.97804,593.25 c -0.0459,-3.65308 -3.86908,-9.98412 -8.4806,-14.04334 C 151.01202,572.61774 147.61085,572 118.8185,572 H 94 l 0.02196,3.25 c 0.02926,4.32986 3.028182,10.59501 6.7392,14.07908 5.51359,5.17641 8.26884,5.57923 38.48884,5.62703 25.78677,0.0408 27.74845,-0.0799 27.72804,-1.70611 z m 34.95392,-2.5 C 198.39808,572.2042 185.68617,554.97432 168.95994,546.05933 158.61308,540.54451 154.46407,540 122.7899,540 H 94 v 9.5 9.5 h 26.41091 c 23.04351,0 27.18132,0.23978 32.45342,1.88064 13.36966,4.16111 25.0749,17.10103 26.79029,29.61616 L 180.27185,595 h 11.23497 11.23497 z m 35.86069,-1 c -1.46409,-8.22676 -6.47071,-22.32526 -11.06916,-31.17039 C 214.18034,534.45276 195.98295,518.72013 171,510.40362 l -8.5,-2.82954 -34.25,-0.3572 L 94,506.85969 v 9.48338 9.48338 l 30.75,0.43863 c 34.44973,0.49141 35.94899,0.72671 50.07347,7.85859 19.13914,9.66393 36.63101,32.99583 39.64125,52.87633 1.29643,8.56196 0.38562,8 12.96615,8 h 11.2961 z m 65.30813,4.1119 c 8.05799,-2.69792 13.82679,-10.1223 13.87883,-17.8619 l 0.0235,-3.5 -21.33112,0.5 -21.33111,0.5 -6.92046,5.06315 c -3.80625,2.78473 -9.03011,6.60973 -11.60856,8.5 -3.09475,2.26876 -4.70914,4.20156 -4.75,5.68685 L 251,595 h 24.35078 c 15.54592,0 25.57988,-0.41152 27.75,-1.1381 z m -33.73412,-32.15109 c 3.83678,-2.05219 5.69385,-2.23376 25.88334,-2.53073 L 317,558.86016 V 549.43008 540 l -24.75,0.006 c -28.48035,0.007 -25.70533,-0.72394 -40.77743,10.74205 l -10.02744,7.6283 3.42591,9.23394 3.4259,9.23395 8.46819,-6.46139 c 4.6575,-3.55376 10.32819,-7.45625 12.60153,-8.6722 z M 258.44578,529.78498 264.5,526.5 290.75,526.17639 317,525.85277 V 516.42639 507 h -26.39466 c -35.07215,0 -36.14572,0.32396 -58.23571,17.57308 l -8.34533,6.5165 4.04788,5.12094 c 2.22633,2.81652 4.70945,6.40031 5.51805,7.96397 l 1.47018,2.84302 8.66558,-6.97378 c 4.76606,-3.83558 11.38997,-8.45202 14.71979,-10.25875 z m -30.57176,-18.2682 c 21.92859,-16.94853 27.19921,-18.4742 63.9083,-18.49942 L 317.06464,493 316.78232,437.58515 316.5,382.1703 l -3.01338,-4.33515 c -1.76116,-2.53368 -4.86195,-5.27014 -7.46188,-6.58515 L 301.57622,369 h -96.32795 c -93.63473,0 -96.43515,0.0547 -100.16232,1.95615 -4.83503,2.46665 -8.710243,7.02991 -10.041944,11.8249 -0.650635,2.34272 -1.034916,23.42461 -1.038429,56.96895 L 94,493 l 28.25,0.007 c 38.04953,0.01 50.33576,1.99333 68.32953,11.03288 l 7.33183,3.6833 1.85188,-2.11162 c 1.735,-1.97834 1.80191,-3.46871 1.06012,-23.61163 -1.39816,-37.96623 -2.49193,-42.22752 -13.99522,-54.52457 -6.4545,-6.89987 -11.02993,-9.99571 -13.4184,-9.07917 -2.79902,1.07409 -1.28431,4.33452 5.59026,12.03308 3.85,4.31146 7,8.22007 7,8.68579 0,1.32132 -4.96064,2.37584 -11.04335,2.34756 -16.72073,-0.0778 -31.12552,-17.48471 -34.51852,-41.71269 l -0.66522,-4.75 8.86355,0.0174 c 25.58431,0.0501 42.44085,9.74709 53.75521,30.92347 l 3.1685,5.93027 2.21656,-5.68555 c 7.20493,-18.48089 25.96024,-28.9696 56.62192,-31.66521 l 6.89865,-0.6065 -0.59813,6.79308 c -1.75138,19.89072 -14.36491,37.2135 -29.36425,40.32735 -5.45447,1.13234 -13.67185,0.6116 -16.33653,-1.03527 -2.29011,-1.41536 0.63772,-5.66332 7.7752,-11.28095 7.47016,-5.87946 8.67892,-7.71694 6.78256,-10.31037 -1.30344,-1.78256 -1.52987,-1.79063 -4.91723,-0.17532 -5.00336,2.38594 -11.10126,8.14755 -16.10482,15.21666 C 210.20263,445.21987 210.55644,443.6216 210,472 c -0.275,14.025 -0.49574,25.57926 -0.49053,25.67614 0.005,0.0969 3.58207,-2.49947 7.94858,-5.76965 9.25545,-6.93161 11.22655,-10.2269 8.90314,-14.88428 -2.021,-4.0512 -0.98549,-8.31911 2.78905,-11.49518 3.9605,-3.33253 7.31987,-3.21077 10.92668,0.39605 3.95573,3.95572 3.98053,8.79065 0.0682,13.29212 -1.57019,1.80664 -3.60785,5.5348 -4.52813,8.2848 -1.57737,4.71355 -2.47736,5.59049 -15.70944,15.30703 l -14.03622,10.30703 4.31434,3.90196 c 2.37289,2.14607 4.56282,3.92041 4.8665,3.94297 0.30369,0.0226 6.07353,-4.22644 12.82187,-9.44221 z"
         id="path11" />
      <g
         id="g13">
        <g
           id="g14">
          <path
             style="fill:#0f0f11"
             d="m 103.20496,606.10577 c -6.503144,-2.24622 -11.563537,-6.23571 -15.910319,-12.54331 -6.615168,-9.59925 -6.361086,-4.81683 -6.063734,-114.13405 L 81.5,380.5 l 2.601113,-5.54563 c 3.712368,-7.91485 8.103467,-12.43745 15.713263,-16.18383 L 106.45764,355.5 h 98.02118 c 79.41914,0 98.78028,0.25504 102.02118,1.34391 6.31764,2.12259 14.17605,7.95156 17.51408,12.99106 6.2752,9.47382 6.05043,5.01213 5.75492,114.23631 L 329.5,583.5 l -2.80036,5.70261 c -3.50633,7.14022 -11.02912,14.02867 -18.28552,16.74364 -5.4011,2.02081 -7.04845,2.05323 -102.70163,2.0211 -91.53597,-0.0307 -97.52168,-0.13944 -102.50753,-1.86158 z m 63.62362,-14.76444 c -2.19215,-7.93929 -8.94709,-14.83716 -17.52657,-17.89739 -2.81405,-1.00376 -10.52937,-1.36756 -29.6913,-1.40005 L 93.721418,572 l 0.584999,4.9394 c 0.814571,6.87778 4.726998,12.40004 10.999883,15.52594 L 110.39269,595 h 28.72305 28.72305 z m 35.65613,0.40867 c -1.33287,-6.42515 -5.40553,-17.02499 -8.66392,-22.54944 -4.89298,-8.29579 -15.21914,-18.11118 -23.79422,-22.61726 -12.24104,-6.43248 -14.31594,-6.75366 -46.77657,-7.2406 L 94,538.90392 v 9.97845 9.97844 l 28.27502,0.3196 28.27502,0.31959 6.56703,3.2349 c 11.55567,5.6923 21.19552,17.72116 22.60137,28.2026 l 0.5449,4.0625 h 11.44778 11.44779 z m 35.8924,0 c -6.3242,-35.87744 -30.09253,-66.92564 -60.54097,-79.08375 -13.02133,-5.19944 -18.00171,-5.80838 -52.08614,-6.36844 L 94,505.7761 l 1.63e-4,10.36195 1.64e-4,10.36195 24.749833,-0.0927 c 27.83752,-0.10421 37.4922,0.65465 46.52019,3.65652 20.15596,6.70199 38.36668,25.16285 46.10532,46.73862 1.44056,4.01636 2.90731,9.75386 3.25944,12.75 L 215.27536,595 H 227.11268 238.95 Z m 67.60303,1 c 6.61831,-3.38135 10.25451,-8.53438 10.81813,-15.3309 l 0.46444,-5.60057 -20.38136,0.34593 c -14.72577,0.24994 -21.07507,0.72304 -22.88135,1.70496 -1.375,0.74747 -7.09539,4.79514 -12.71197,8.99481 -7.57345,5.66287 -10.2218,8.21711 -10.25,9.88577 L 251,595 h 25.28811 c 24.25317,0 25.46834,-0.0921 29.69203,-2.25 z M 257.63039,569.94592 C 270.47201,559.76738 271.24444,559.5492 295.75,559.17886 l 21.25,-0.32114 -4.2e-4,-9.67886 -4.2e-4,-9.67886 -24.89637,0.17095 c -28.66304,0.19681 -26.04504,-0.50582 -40.76214,10.93986 -5.41236,4.20926 -9.93778,7.72843 -10.0565,7.82037 -0.11871,0.0919 1.09522,3.52005 2.69764,7.618 1.60241,4.09795 3.15886,8.26684 3.45878,9.2642 0.64838,2.15615 0.79558,2.07862 10.18982,-5.36746 z m -7.92848,-34.32048 c 11.66956,-8.83482 12.20899,-8.95225 41.54467,-9.04449 l 25.74657,-0.081 0.003,-10.25 L 317,506 l -23.75,0.0174 c -34.20417,0.025 -38.1489,1.12292 -58.02617,16.14999 -5.89811,4.45893 -10.85121,8.21026 -11.0069,8.3363 -0.15569,0.12604 2.30044,3.86676 5.45806,8.31273 l 5.74112,8.08357 4.04195,-3.28958 c 2.22306,-1.80927 6.8328,-5.40249 10.24385,-7.98493 z m -22.03374,-23.67205 c 12.3599,-9.66128 19.36804,-13.68987 28.88411,-16.60386 5.12658,-1.56985 9.70954,-1.82325 33.19566,-1.83542 L 316.99588,493.5 316.97598,439 c -0.0186,-50.85604 -0.14352,-54.77218 -1.86879,-58.57074 -2.3439,-5.1606 -8.10427,-9.93929 -13.6707,-11.34094 -6.03881,-1.52058 -185.83417,-1.52058 -191.87298,0 -5.56643,1.40165 -11.326805,6.18034 -13.670697,11.34094 -1.725162,3.79833 -1.85039,7.71785 -1.871323,58.57074 l -0.02244,54.5 22.77332,-0.34192 c 38.29593,-0.57497 54.28551,1.71948 71.82447,10.30658 l 8.76307,4.29041 14.27539,-11.03007 c 15.62582,-12.0735 17.06067,-14.01499 14.93259,-20.20518 -0.69399,-2.01866 -1.06,-4.7259 -0.81337,-6.01608 0.70296,-3.67729 4.58744,-6.68304 8.79081,-6.80219 7.76826,-0.2202 11.44715,9.69963 5.61754,15.14724 -1.56041,1.45817 -3.63455,5.05276 -4.60919,7.98799 -1.67615,5.0479 -2.40217,5.7996 -13.41288,13.8872 -6.40245,4.70274 -12.6835,9.4955 -13.95791,10.65057 l -2.31709,2.10015 4.31709,3.73281 c 2.37441,2.05304 4.67589,3.74624 5.11441,3.76265 0.43853,0.0164 6.00541,-4.04114 12.37086,-9.01677 z"
             id="path10" />
        </g>
      </g>
    </g>
  </g>
</svg>
